<?xml version="1.0" encoding="UTF-8" standalone="no"?>
<!-- Created with Inkscape (http://www.inkscape.org/) -->

<svg
   xmlns:dc="http://purl.org/dc/elements/1.1/"
   xmlns:cc="http://creativecommons.org/ns#"
   xmlns:rdf="http://www.w3.org/1999/02/22-rdf-syntax-ns#"
   xmlns:svg="http://www.w3.org/2000/svg"
   xmlns="http://www.w3.org/2000/svg"
   xmlns:sodipodi="http://sodipodi.sourceforge.net/DTD/sodipodi-0.dtd"
   xmlns:inkscape="http://www.inkscape.org/namespaces/inkscape"
   width="575"
   height="240"
   viewBox="0 0 152.13541 63.500002"
   version="1.1"
   id="svg1228"
   inkscape:version="0.92.2 (5c3e80d, 2017-08-06)"
   sodipodi:docname="logo.svg">
  <defs
     id="defs1222" />
  <sodipodi:namedview
     id="base"
     pagecolor="#ffffff"
     bordercolor="#666666"
     borderopacity="1.0"
     inkscape:pageopacity="0.0"
     inkscape:pageshadow="2"
     inkscape:zoom="1"
     inkscape:cx="221.67655"
     inkscape:cy="177.49022"
     inkscape:document-units="mm"
     inkscape:current-layer="g1220"
     showgrid="false"
     showguides="true"
     inkscape:guide-bbox="true"
     inkscape:snap-bbox="true"
     inkscape:bbox-paths="true"
     inkscape:snap-intersection-paths="true"
     inkscape:snap-smooth-nodes="true"
     inkscape:object-paths="true"
     inkscape:bbox-nodes="true"
     inkscape:snap-page="true"
     inkscape:snap-bbox-edge-midpoints="true"
     inkscape:snap-bbox-midpoints="true"
     units="px"
     inkscape:window-width="1920"
     inkscape:window-height="1025"
     inkscape:window-x="0"
     inkscape:window-y="27"
     inkscape:window-maximized="1">
    <sodipodi:guide
       position="172.20006,163.46873"
       orientation="1,0"
       id="guide1919"
       inkscape:locked="false" />
  </sodipodi:namedview>
  <metadata
     id="metadata1225">
    <rdf:RDF>
      <cc:Work
         rdf:about="">
        <dc:format>image/svg+xml</dc:format>
        <dc:type
           rdf:resource="http://purl.org/dc/dcmitype/StillImage" />
        <dc:title />
      </cc:Work>
    </rdf:RDF>
  </metadata>
  <g
     inkscape:label="Calque 1"
     inkscape:groupmode="layer"
     id="layer1"
     transform="translate(0,-233.49997)">
    <g
       id="g1220"
       transform="matrix(3.7713543,0,0,-3.7713543,-362.37531,1931.3102)">
      <g
         id="g232"
         transform="translate(4.6209357e-6)">
        <g
           transform="matrix(-1,0,0,1,237.83252,-30.026633)"
           id="g1962">
          <g
             id="g1915"
             transform="matrix(0.13758414,0,0,0.13758414,87.466217,399.62195)">
            <path
               inkscape:connector-curvature="0"
               id="path116"
               style="fill:none;stroke:#ffffff;stroke-width:1.91989994;stroke-linecap:butt;stroke-linejoin:miter;stroke-miterlimit:22.92560005;stroke-dasharray:none;stroke-opacity:1"
               d="m 393.944,562.235 -52.858,-39.921 52.858,-39.921" />
            <path
               inkscape:connector-curvature="0"
               id="path126"
               style="fill:#f6d89d;fill-opacity:1;fill-rule:evenodd;stroke:none;stroke-width:0.1"
               d="m 291.641,509.371 c 7.264,-2.793 14.8,-0.765 26.183,9.293 11.382,10.059 24.617,17.735 30.44,11.647 5.823,-6.088 1.853,-25.146 -2.647,-32.028 -4.5,-6.883 -17.359,-9.316 -47.883,-9.302 -30.524,0.013 -36.82,20.948 -6.093,20.39" />
            <path
               inkscape:connector-curvature="0"
               id="path128"
               style="fill:#464648;fill-opacity:1;fill-rule:evenodd;stroke:none;stroke-width:0.1"
               d="m 154.476,471.116 c 5.098,0 9.255,4.157 9.255,9.255 0,5.097 -4.157,9.255 -9.255,9.255 -5.097,0 -9.255,-4.158 -9.255,-9.255 0,-5.098 4.158,-9.255 9.255,-9.255" />
            <path
               inkscape:connector-curvature="0"
               id="path130"
               style="fill:#f6d89d;fill-opacity:1;fill-rule:evenodd;stroke:none;stroke-width:0.1"
               d="m 154.476,475.387 c 2.745,0 4.983,2.239 4.983,4.984 0,2.744 -2.238,4.983 -4.983,4.983 -2.745,0 -4.983,-2.239 -4.983,-4.983 0,-2.745 2.238,-4.984 4.983,-4.984" />
            <path
               inkscape:connector-curvature="0"
               id="path132"
               style="fill:#a0601d;fill-opacity:1;fill-rule:evenodd;stroke:none;stroke-width:0.1"
               d="m 167.093,507.107 4.418,-2.573 -11.565,-19.853 -4.419,2.573 11.566,19.853" />
            <path
               inkscape:connector-curvature="0"
               id="path134"
               style="fill:#a0601d;fill-opacity:1;fill-rule:evenodd;stroke:none;stroke-width:0.1"
               d="m 132.753,510.842 2.445,2.38 30.172,-31.791 -2.445,-2.38 -30.172,31.791" />
            <path
               inkscape:connector-curvature="0"
               id="path136"
               style="fill:#cc7f1a;fill-opacity:1;fill-rule:evenodd;stroke:none;stroke-width:0.1"
               d="m 186.465,531.399 c 0.758,0 1.372,-0.614 1.372,-1.372 l -10e-4,-0.044 c 0.515,-1.106 2.266,-4.247 5.468,-4.087 3.741,0.187 2.798,2.896 3.591,4.31 -0.783,0.862 -1.261,2.007 -1.261,3.263 0,2.681 2.174,4.855 4.855,4.855 2.681,0 4.855,-2.174 4.855,-4.855 0,-1.699 -0.874,-3.194 -2.196,-4.061 2.438,-2.981 4.255,-8.493 3.943,-16.134 -0.388,-9.515 -25.826,-0.583 -25.826,-0.583 0,0 6.602,6.02 5.631,10.487 -0.971,4.466 -1.748,6.408 -1.748,6.408 l 0.017,0.005 c -0.046,0.137 -0.071,0.284 -0.071,0.436 0,0.758 0.614,1.372 1.371,1.372" />
            <path
               inkscape:connector-curvature="0"
               id="path138"
               style="fill:#f79f13;fill-opacity:1;fill-rule:evenodd;stroke:none;stroke-width:0.1"
               d="m 109.397,528.942 c -0.901,-8.401 12.877,-24.047 72.145,-31.456 59.267,-7.409 141.995,-11.289 145.522,-5.997 3.09,4.635 -59.518,28.828 -103.988,38.849 -0.535,-5.459 -2.019,-9.414 -5.711,-8.535 -6.176,1.471 -28.232,5.294 -37.349,7.058 -7.715,1.494 -7.848,4.461 -8.063,8.368 -33.392,2.36 -61.618,0.457 -62.556,-8.287" />
            <path
               inkscape:connector-curvature="0"
               id="path140"
               style="fill:#cc7f1a;fill-opacity:1;fill-rule:evenodd;stroke:none;stroke-width:0.1"
               d="m 140.846,505.592 c 10.27,-3.141 23.583,-5.967 40.696,-8.106 3.855,-0.482 7.812,-0.949 11.838,-1.399 2.094,15.837 3.925,29.59 3.925,29.59 -6.632,1.21 -13.238,2.4 -17.289,3.184 -7.715,1.494 -7.848,4.461 -8.063,8.368 -5.228,0.37 -10.33,0.635 -15.22,0.785 l -15.887,-32.422" />
            <path
               inkscape:connector-curvature="0"
               id="path142"
               style="fill:#f79f13;fill-opacity:1;fill-rule:evenodd;stroke:none;stroke-width:0.1"
               d="m 118.406,532.428 c 8.792,-1.563 15.527,-5.038 15.043,-7.762 -0.485,-2.723 -8.004,-3.664 -16.796,-2.101 -8.792,1.562 -15.527,5.037 -15.043,7.761 0.484,2.723 8.004,3.664 16.796,2.102" />
            <path
               inkscape:connector-curvature="0"
               id="path144"
               style="fill:#cc7f1a;fill-opacity:1;fill-rule:evenodd;stroke:none;stroke-width:0.1"
               d="m 109.358,528.079 0.057,-0.013 0.056,-0.012 0.012,-0.002 0.043,-0.009 0.055,-0.012 0.026,-0.006 0.027,-0.006 0.053,-0.011 0.041,-0.009 0.01,-0.002 0.051,-0.012 0.05,-0.01 0.003,-10e-4 0.046,-0.01 0.048,-0.01 0.018,-0.004 0.029,-0.006 0.046,-0.01 0.03,-0.007 0.016,-0.003 0.045,-0.01 0.041,-0.009 h 0.002 l 0.043,-0.009 0.042,-0.01 0.009,-0.002 0.032,-0.006 0.04,-0.009 0.02,-0.005 0.019,-0.004 0.038,-0.008 0.03,-0.007 0.007,-10e-4 0.036,-0.008 0.037,-0.008 h 0.003 l 0.031,-0.007 0.034,-0.007 0.013,-0.003 0.02,-0.005 0.032,-0.007 0.021,-0.004 0.01,-0.002 0.03,-0.007 0.028,-0.006 0.001,-10e-4 0.029,-0.006 0.027,-0.006 0.007,-0.001 0.02,-0.005 0.026,-0.006 0.013,-0.002 0.011,-0.003 0.024,-0.005 0.02,-0.004 0.003,-10e-4 0.022,-0.005 0.022,-0.005 h 0.002 l 0.018,-0.004 0.019,-0.005 0.008,-10e-4 0.011,-0.003 0.018,-0.004 0.011,-0.002 0.005,-10e-4 0.016,-0.003 0.015,-0.004 v 0 l 0.014,-0.003 0.013,-0.003 0.003,-10e-4 0.009,-0.002 0.012,-0.002 0.006,-10e-4 0.004,-10e-4 0.009,-0.002 0.008,-0.002 h 0.001 l 0.008,-0.002 0.007,-0.002 h 10e-4 l 0.005,-10e-4 0.004,-0.001 h 0.002 l 0.002,-10e-4 0.004,-10e-4 h 0.002 v 0 h 10e-4 0.001 l 0.001,-0.002 0.005,-0.005 0.005,-0.006 0.002,-0.002 0.011,-0.011 0.013,-0.015 0.01,-0.01 0.007,-0.007 0.02,-0.021 0.023,-0.024 0.01,-0.01 0.016,-0.017 0.029,-0.029 0.032,-0.033 0.007,-0.006 0.029,-0.029 0.039,-0.039 0.041,-0.041 h 0.001 l 0.045,-0.045 0.089,-0.086 0.011,-0.011 0.056,-0.052 0.058,-0.055 0.062,-0.059 0.066,-0.06 0.068,-0.064 0.073,-0.066 0.075,-0.068 0.08,-0.072 0.071,-0.063 0.011,-0.01 0.086,-0.076 0.183,-0.159 0.096,-0.084 0.009,-0.007 0.092,-0.078 0.104,-0.088 0.107,-0.09 0.112,-0.093 0.114,-0.094 0.119,-0.097 0.123,-0.099 0.126,-0.101 0.025,-0.021 0.227,-0.179 0.011,-0.009 0.137,-0.108 0.015,-0.01 0.247,-0.192 0.025,-0.018 0.149,-0.114 0.023,-0.018 0.129,-0.097 0.157,-0.117 0.161,-0.119 0.164,-0.121 v 0 l 0.169,-0.123 0.172,-0.124 0.171,-0.122 0.283,-0.2 0.222,-0.155 0.293,-0.202 0.261,-0.177 0.361,-0.242 0.161,-0.107 0.447,-0.292 0.177,-0.115 c 8.738,-5.614 27.203,-14.355 60.932,-17.961 51.566,-5.513 118.049,-11.675 139.778,-7.783 0.59,0.106 1.165,0.21 1.731,0.313 4.971,-2.627 7.59,-4.652 6.897,-5.692 -3.527,-5.292 -86.255,-1.412 -145.522,5.997 -49.194,6.149 -67.047,17.974 -71.179,26.62 -4.936,1.583 -8.362,3.712 -8.741,5.596 3.57,-0.734 6.157,-1.284 7.736,-1.623" />
            <path
               inkscape:connector-curvature="0"
               id="path146"
               style="fill:#cc7f1a;fill-opacity:1;fill-rule:evenodd;stroke:none;stroke-width:0.1"
               d="m 109.358,528.079 0.057,-0.013 0.056,-0.012 0.012,-0.002 0.043,-0.009 0.055,-0.012 0.026,-0.006 0.027,-0.006 0.053,-0.011 0.041,-0.009 0.01,-0.002 0.051,-0.012 0.05,-0.01 0.003,-10e-4 0.046,-0.01 0.048,-0.01 0.018,-0.004 0.029,-0.006 0.046,-0.01 0.03,-0.007 0.016,-0.003 0.045,-0.01 0.041,-0.009 h 0.002 l 0.043,-0.009 0.042,-0.01 0.009,-0.002 0.032,-0.006 0.04,-0.009 0.02,-0.005 0.019,-0.004 0.038,-0.008 0.03,-0.007 0.007,-10e-4 0.036,-0.008 0.037,-0.008 h 0.003 l 0.031,-0.007 0.034,-0.007 0.013,-0.003 0.02,-0.005 0.032,-0.007 0.021,-0.004 0.01,-0.002 0.03,-0.007 0.028,-0.006 0.001,-10e-4 0.029,-0.006 0.027,-0.006 0.007,-0.001 0.02,-0.005 0.026,-0.006 0.013,-0.002 0.011,-0.003 0.024,-0.005 0.02,-0.004 0.003,-10e-4 0.022,-0.005 0.022,-0.005 h 0.002 l 0.018,-0.004 0.019,-0.005 0.008,-10e-4 0.011,-0.003 0.018,-0.004 0.011,-0.002 0.005,-10e-4 0.016,-0.003 0.015,-0.004 v 0 l 0.014,-0.003 0.013,-0.003 0.003,-10e-4 0.009,-0.002 0.012,-0.002 0.006,-10e-4 0.004,-10e-4 0.009,-0.002 0.008,-0.002 h 0.001 l 0.008,-0.002 0.007,-0.002 h 10e-4 l 0.005,-10e-4 0.004,-0.001 h 0.002 l 0.002,-10e-4 0.004,-10e-4 h 0.002 v 0 h 10e-4 0.001 l 0.001,-0.002 0.005,-0.005 0.005,-0.006 0.002,-0.002 0.011,-0.011 0.013,-0.015 0.01,-0.01 0.007,-0.007 0.02,-0.021 0.023,-0.024 0.01,-0.01 0.016,-0.017 0.029,-0.029 0.032,-0.033 0.007,-0.006 0.029,-0.029 0.039,-0.039 0.041,-0.041 h 0.001 l 0.045,-0.045 0.089,-0.086 0.011,-0.011 0.056,-0.052 0.058,-0.055 0.062,-0.059 0.066,-0.06 0.068,-0.064 0.073,-0.066 0.075,-0.068 0.08,-0.072 0.071,-0.063 0.011,-0.01 0.086,-0.076 0.183,-0.159 0.096,-0.084 0.009,-0.007 0.092,-0.078 0.104,-0.088 0.107,-0.09 0.112,-0.093 0.114,-0.094 0.119,-0.097 0.123,-0.099 0.126,-0.101 0.025,-0.021 0.227,-0.179 0.011,-0.009 0.137,-0.108 0.015,-0.01 0.247,-0.192 0.025,-0.018 0.149,-0.114 0.023,-0.018 0.129,-0.097 0.157,-0.117 0.161,-0.119 0.164,-0.121 v 0 l 0.169,-0.123 0.172,-0.124 0.171,-0.122 0.283,-0.2 0.222,-0.155 0.293,-0.202 0.261,-0.177 0.361,-0.242 0.161,-0.107 0.447,-0.292 0.177,-0.115 c 0.153,-0.098 0.31,-0.198 0.47,-0.298 -0.509,0.075 -1.024,0.158 -1.544,0.251 -2.262,0.402 -4.387,0.931 -6.289,1.541 l -0.231,0.074 -0.228,0.075 c -0.151,0.051 -0.3,0.102 -0.449,0.154 l -0.221,0.077 -0.215,0.078 -0.007,0.002 -0.213,0.078 -0.214,0.079 c -0.919,0.346 -1.769,0.712 -2.537,1.088 l -0.004,0.003 c -0.17,0.083 -0.335,0.167 -0.497,0.252 l -0.04,0.02 -0.146,0.078 -0.163,0.089 -0.127,0.07 -0.061,0.034 -0.13,0.074 -0.154,0.09 -0.122,0.073 -0.065,0.039 -0.106,0.064 -0.005,0.003 -0.144,0.091 c -0.095,0.06 -0.188,0.121 -0.279,0.182 l -0.134,0.091 -0.121,0.085 -0.019,0.013 c -0.168,0.119 -0.328,0.239 -0.478,0.359 l -0.113,0.092 -0.109,0.091 -0.001,0.001 -0.105,0.091 -0.102,0.092 -0.089,0.084 -0.016,0.015 c -0.092,0.088 -0.178,0.176 -0.26,0.264 l -0.009,0.009 c -0.08,0.087 -0.154,0.174 -0.223,0.26 l -0.016,0.019 c -0.067,0.085 -0.129,0.17 -0.186,0.254 l -0.014,0.022 -0.052,0.08 -0.054,0.091 -0.045,0.08 -0.01,0.019 -0.041,0.08 v 0.002 l -0.042,0.09 -0.032,0.075 -0.01,0.026 -0.029,0.076 -0.005,0.017 c -0.018,0.052 -0.033,0.104 -0.046,0.156 l -0.003,0.013 -0.019,0.082 c 3.57,-0.734 6.157,-1.284 7.736,-1.623" />
            <path
               inkscape:connector-curvature="0"
               id="path148"
               style="fill:#fef3d9;fill-opacity:1;fill-rule:evenodd;stroke:none;stroke-width:0.1"
               d="m 113.447,563.119 c -0.449,-9.683 -1.799,-21.512 -4.05,-34.178 -2.251,-12.665 -5.061,-24.234 -7.977,-33.479 0.449,9.683 1.799,21.512 4.05,34.178 2.252,12.665 5.061,24.235 7.977,33.479" />
            <path
               inkscape:connector-curvature="0"
               id="path150"
               style="fill:#fbc865;fill-opacity:1;fill-rule:evenodd;stroke:none;stroke-width:0.1"
               d="m 104.524,526.642 c -2.015,1.227 -3.12,2.524 -2.914,3.684 0.206,1.16 1.691,1.996 4.005,2.454 0.121,-1.024 0.096,-2.082 -0.094,-3.15 -0.189,-1.067 -0.53,-2.069 -0.997,-2.988" />
            <path
               inkscape:connector-curvature="0"
               id="path152"
               style="fill:#464648;fill-opacity:1;fill-rule:evenodd;stroke:none;stroke-width:0.1"
               d="m 162.553,463.375 c 5.654,0 10.265,4.611 10.265,10.265 0,5.653 -4.611,10.264 -10.265,10.264 -5.654,0 -10.264,-4.611 -10.264,-10.264 0,-5.654 4.61,-10.265 10.264,-10.265" />
            <path
               inkscape:connector-curvature="0"
               id="path154"
               style="fill:#f6d89d;fill-opacity:1;fill-rule:evenodd;stroke:none;stroke-width:0.1"
               d="m 162.553,468.112 c 3.044,0 5.527,2.483 5.527,5.528 0,3.044 -2.483,5.527 -5.527,5.527 -3.044,0 -5.527,-2.483 -5.527,-5.527 0,-3.045 2.483,-5.528 5.527,-5.528" />
            <path
               inkscape:connector-curvature="0"
               id="path156"
               style="fill:#ffffff;fill-opacity:1;fill-rule:evenodd;stroke:none;stroke-width:0.1"
               d="m 151.962,556.719 c -2.063,0.108 -2.059,-1.201 1.544,-1.887 3.602,-0.686 38.254,-8.577 42.714,-8.92 4.46,-0.343 17.669,-1.201 26.418,1.201 8.749,2.401 50.605,16.125 54.036,17.497 3.43,1.372 6.004,1.715 2.23,3.431 -3.774,1.715 -50.434,13.895 -57.638,15.096 -7.205,1.2 -13.209,2.23 -17.498,-1.544 -4.289,-3.774 -33.279,-21.271 -35.509,-23.33 -2.23,-2.059 -11.814,-1.78 -16.297,-1.544" />
            <path
               inkscape:connector-curvature="0"
               id="path158"
               style="fill:#a0601d;fill-opacity:1;fill-rule:evenodd;stroke:none;stroke-width:0.1"
               d="m 167.997,500.169 4.89,-1.497 -7.889,-25.78 c -0.94601,-3.09141 -5.45734,-0.35805 -4.89,1.496 l 7.889,25.781"
               sodipodi:nodetypes="ccssc" />
            <path
               inkscape:connector-curvature="0"
               id="path160"
               style="fill:#ffffff;fill-opacity:1;fill-rule:evenodd;stroke:none;stroke-width:0.1"
               d="m 230.805,559.974 4.287,-0.472 -5.672,-65.252 -4.287,0.472 5.672,65.252" />
            <path
               inkscape:connector-curvature="0"
               id="path162"
               style="fill:#ffffff;fill-opacity:1;fill-rule:evenodd;stroke:none;stroke-width:0.1"
               d="m 197.662,568.297 4.287,-0.472 -7.736,-70.207 -4.287,0.472 7.736,70.207" />
            <path
               inkscape:connector-curvature="0"
               id="path164"
               style="fill:#fbc865;fill-opacity:1;fill-rule:nonzero;stroke:none;stroke-width:0.1"
               d="m 201.949,567.825 24.538,-72.663 -1.354,-0.44 -24.538,72.663 1.354,0.44" />
            <path
               inkscape:connector-curvature="0"
               id="path166"
               style="fill:#fbc865;fill-opacity:1;fill-rule:nonzero;stroke:none;stroke-width:0.1"
               d="m 232.002,559.206 -37.789,-61.588 -1.197,0.769 37.789,61.587 1.197,-0.768" />
            <path
               inkscape:connector-curvature="0"
               id="path168"
               style="fill:#ffffff;fill-opacity:1;fill-rule:evenodd;stroke:none;stroke-width:0.1"
               d="m 178.083,550.785 3.395,-0.332 -2.368,-21.401 c -1.348,0.306 -2.436,0.664 -3.314,1.071 l 2.287,20.662"
               sodipodi:nodetypes="ccccc" />
            <path
               inkscape:connector-curvature="0"
               id="path170"
               style="fill:none;stroke:#ffffff;stroke-width:0.21600001;stroke-linecap:butt;stroke-linejoin:miter;stroke-miterlimit:22.92560005;stroke-dasharray:none;stroke-opacity:1"
               d="m 178.083,550.785 3.395,-0.332 -2.368,-21.401 c -1.348,0.306 -2.436,0.664 -3.314,1.071 z" />
            <path
               inkscape:connector-curvature="0"
               id="path172"
               style="fill:#ffffff;fill-opacity:1;fill-rule:evenodd;stroke:none;stroke-width:0.1"
               d="m 157.799,554.629 3.396,-0.332 -1.812,-16.376 c -1.151,0.045 -2.291,0.083 -3.42,0.115 l 1.836,16.593" />
            <path
               inkscape:connector-curvature="0"
               id="path174"
               style="fill:#fbc865;fill-opacity:1;fill-rule:nonzero;stroke:none;stroke-width:0.1"
               d="m 161.195,554.297 4.588,-16.677 -0.897,0.048 -4.503,16.366 0.812,0.263" />
            <path
               inkscape:connector-curvature="0"
               id="path176"
               style="fill:#fbc865;fill-opacity:1;fill-rule:nonzero;stroke:none;stroke-width:0.1"
               d="m 178.758,550.047 -7.279,-12.785 -0.943,0.065 7.504,13.181 0.718,-0.461" />
            <path
               inkscape:connector-curvature="0"
               id="path178"
               style="fill:#ffffff;fill-opacity:1;fill-rule:evenodd;stroke:none;stroke-width:0.1"
               d="m 162.324,500.312 c 8.67,0.619 32.407,0.413 43.348,-0.207 10.94,-0.619 25.596,-4.541 37.569,-8.257 11.972,-3.715 24.77,-8.256 25.389,-9.701 0.62,-1.445 -5.986,-0.826 -14.449,-0.206 -8.463,0.619 -41.697,6.605 -47.889,7.224 -6.193,0.619 -47.684,10.527 -43.968,11.147" />
            <path
               inkscape:connector-curvature="0"
               id="path180"
               style="fill:#cc7f1a;fill-opacity:1;fill-rule:evenodd;stroke:none;stroke-width:0.1"
               d="m 351.15,518.561 c -0.286,-7.506 -2.812,-16.117 -5.533,-20.278 -4.5,-6.883 -17.359,-9.316 -47.884,-9.302 -12.287,0.005 -20.645,3.401 -24.246,7.421 19.737,-1.035 36.076,-1.123 44.949,0.466 21.729,3.892 26.269,5.838 32.431,21.08 0.09,0.223 0.185,0.425 0.283,0.613" />
            <path
               inkscape:connector-curvature="0"
               id="path182"
               style="fill:#f79f13;fill-opacity:1;fill-rule:evenodd;stroke:none;stroke-width:0.1"
               d="m 328.297,502.013 c 19.211,-2.742 34.571,-6.466 34.307,-8.315 -0.264,-1.849 -16.052,-1.125 -35.263,1.618 -19.211,2.743 -34.571,6.466 -34.307,8.315 0.264,1.85 16.052,1.125 35.263,-1.618" />
            <path
               inkscape:connector-curvature="0"
               id="path184"
               style="fill:#fbc55f;fill-opacity:1;fill-rule:evenodd;stroke:none;stroke-width:0.1"
               d="m 328.297,502.013 c 19.211,-2.742 34.571,-6.466 34.307,-8.315 l -69.57,9.933 c 0.264,1.85 16.052,1.125 35.263,-1.618" />
          </g>
          <path
             transform="scale(1,-1)"
             style="opacity:1;fill:#ffffff;fill-opacity:1;fill-rule:evenodd;stroke:none;stroke-width:0.1711926;stroke-linecap:round;stroke-linejoin:round;stroke-miterlimit:4;stroke-dasharray:none;stroke-opacity:1;paint-order:normal"
             d="m 141.58591,-477.08115 0.16035,-0.12359 c 1e-5,0.11013 0,0.2266 -1e-5,0.33332 h -0.1587 z"
             id="rect1921"
             inkscape:connector-curvature="0"
             sodipodi:nodetypes="ccccc" />
          <path
             sodipodi:nodetypes="ccccc"
             inkscape:connector-curvature="0"
             id="path1924"
             d="m 141.58591,465.88696 0.16035,-0.12359 c 1e-5,0.11013 0,0.2266 -1e-5,0.33332 h -0.1587 z"
             style="opacity:1;fill:#ffffff;fill-opacity:1;fill-rule:evenodd;stroke:none;stroke-width:0.1711926;stroke-linecap:round;stroke-linejoin:round;stroke-miterlimit:4;stroke-dasharray:none;stroke-opacity:1;paint-order:normal" />
        </g>
      </g>
    </g>
  </g>
</svg>
